<svg width="201" height="40" viewBox="0 0 201 40" fill="none" xmlns="http://www.w3.org/2000/svg">
<path d="M30.1224 17.5877C28.9867 18.6947 28.4191 20.2344 28.5741 21.7879L28.5474 21.7621C28.7067 23.5903 28.026 25.3935 26.6868 26.6908C25.3476 27.9882 23.4862 28.6476 21.599 28.4933L21.6257 28.5191C19.3407 28.3131 17.1678 29.5171 16.1926 31.5295C15.2175 33.5419 15.6496 35.9305 17.273 37.5017C18.8965 39.073 21.3626 39.4894 23.439 38.543C25.5155 37.5965 26.7564 35.4904 26.5417 33.2771L26.5698 33.3029C26.4105 31.4747 27.0912 29.6715 28.4304 28.3742C29.7696 27.0768 31.631 26.4174 33.5182 26.5717L33.4901 26.5459C36.0013 26.7647 38.338 25.2814 39.1334 22.9636C39.9288 20.6457 38.9739 18.1024 36.8273 16.8211C34.6807 15.5398 31.9063 15.8573 30.1269 17.5877H30.1224Z" fill="#5454D4"/>
<path d="M19.2025 25.1377L19.1744 25.1119C20.779 25.2685 22.3715 24.7188 23.5124 23.6144C24.6532 22.5101 25.2219 20.9678 25.0614 19.4132L25.0895 19.439C24.9302 17.6108 25.611 15.8076 26.9501 14.5102C28.2893 13.2129 30.1508 12.5535 32.0379 12.7078L32.0098 12.682C34.2949 12.8899 36.4692 11.6872 37.4458 9.67507C38.4224 7.66296 37.9916 5.27364 36.3687 3.70143C34.7457 2.12923 32.2793 1.71184 30.2022 2.65792C28.1252 3.604 26.8837 5.71031 27.0983 7.92401L27.0716 7.89676C27.2315 9.72507 26.5509 11.5286 25.2116 12.8261C23.8723 14.1235 22.0105 14.7828 20.1232 14.6279L20.1499 14.6552C18.5452 14.4985 16.9527 15.0482 15.8118 16.1526C14.671 17.257 14.1023 18.7992 14.2628 20.3539L14.2362 20.3281C14.395 22.1561 13.7141 23.959 12.375 25.2562C11.0359 26.5534 9.17482 27.213 7.28778 27.0592L7.31442 27.085C5.02929 26.8771 2.855 28.0799 1.87839 30.092C0.90178 32.1041 1.33263 34.4934 2.95557 36.0656C4.57852 37.6378 7.04495 38.0552 9.122 37.1091C11.199 36.163 12.4406 34.0567 12.226 31.843L12.2541 31.8688C12.0948 30.0407 12.7755 28.2374 14.1147 26.9401C15.4539 25.6428 17.3153 24.9833 19.2025 25.1377Z" fill="#FF7143"/>
<path d="M9.28171 22.2596C10.4177 21.1528 10.9848 19.6129 10.8286 18.0595L10.8567 18.0853C10.6973 16.2566 11.3784 14.4528 12.7183 13.1554C14.0581 11.8579 15.9204 11.1989 17.8081 11.3541L17.78 11.3283C20.0643 11.5356 22.2375 10.333 23.2135 8.32154C24.1896 6.31006 23.7587 3.92168 22.1364 2.35006C20.514 0.778435 18.0486 0.36108 15.9722 1.30658C13.8958 2.25208 12.6544 4.35738 12.8684 6.57031L12.8418 6.54449C13.0011 8.37267 12.3203 10.1759 10.9812 11.4732C9.64198 12.7705 7.78054 13.43 5.89336 13.2757L5.92001 13.3015C3.40888 13.0833 1.07266 14.567 0.277732 16.8848C-0.517197 19.2026 0.437973 21.7457 2.58459 23.0267C4.73121 24.3077 7.50542 23.9901 9.28467 22.2596H9.28171Z" fill="#5454D4"/>
<path d="M55.1361 7.95703H59.5325V28.6825H55.1361V7.95703Z" fill="#19191B"/>
<path fill-rule="evenodd" clip-rule="evenodd" d="M66.7954 14.6128C63.8941 15.7869 62.0098 18.5397 62.0223 21.5856C62.0071 23.5829 62.8215 25.5022 64.2823 26.9117C65.7432 28.3212 67.7277 29.1024 69.7893 29.0797C72.9336 29.0797 75.7677 27.2432 76.968 24.4279C78.1683 21.6126 77.4981 18.374 75.2703 16.2245C73.0425 14.075 69.6967 13.4387 66.7954 14.6128ZM69.7269 18.4099C71.5768 18.3768 73.1087 19.7939 73.1599 21.5856C73.2098 22.4738 72.874 23.3418 72.2338 23.9795C71.5936 24.6171 70.7072 24.9663 69.7893 24.9426C67.9391 24.9427 66.4343 23.4985 66.4172 21.7062C66.4001 19.9139 67.877 18.443 69.7269 18.4099Z" fill="#19191B"/>
<path fill-rule="evenodd" clip-rule="evenodd" d="M95.0783 27.967V14.4874L90.7988 14.4846V15.9329C89.7549 14.6955 88.1672 14.0107 86.5194 14.0874C82.4997 14.2102 79.3069 17.4023 79.3069 21.2982C79.3069 25.1941 82.4997 28.3862 86.5194 28.509C88.1672 28.5856 89.7549 27.9009 90.7988 26.6635V27.9612C90.8724 28.8175 90.5403 29.6597 89.8963 30.2504C89.2522 30.8412 88.366 31.1164 87.4875 30.9984C86.0978 31.1358 84.7661 30.4231 84.1465 29.2103L80.3955 31.3111C81.863 33.6274 84.5432 34.9555 87.3409 34.7526C91.2385 34.7526 95.0783 32.7364 95.0783 27.967ZM88.7112 18.0196C90.0337 18.5973 90.8608 19.8961 90.8003 21.3003C90.8277 22.207 90.458 23.0826 89.7826 23.711C89.1073 24.3393 88.1892 24.6616 87.2551 24.5985C85.8043 24.6002 84.4982 23.7472 83.9557 22.4437C83.4133 21.1401 83.7436 19.6481 84.79 18.6746C85.8364 17.7011 87.3887 17.4418 88.7112 18.0196Z" fill="#19191B"/>
<path fill-rule="evenodd" clip-rule="evenodd" d="M102.341 14.6128C99.4399 15.7869 97.5555 18.5397 97.5681 21.5856C97.5529 23.5829 98.3673 25.5022 99.8281 26.9117C101.289 28.3212 103.273 29.1024 105.335 29.0797C108.479 29.0797 111.313 27.2432 112.514 24.4279C113.714 21.6126 113.044 18.374 110.816 16.2245C108.588 14.075 105.243 13.4387 102.341 14.6128ZM105.273 18.4099C107.123 18.3768 108.654 19.7939 108.706 21.5856C108.756 22.4738 108.42 23.3418 107.78 23.9795C107.139 24.6171 106.253 24.9663 105.335 24.9426C103.485 24.9427 101.98 23.4985 101.963 21.7062C101.946 19.9139 103.423 18.443 105.273 18.4099Z" fill="#19191B"/>
<path fill-rule="evenodd" clip-rule="evenodd" d="M116.781 8.32228C115.795 8.7178 115.152 9.64958 115.152 10.6831C115.167 12.0886 116.339 13.2245 117.79 13.2385C118.857 13.2385 119.819 12.6159 120.227 11.661C120.635 10.7062 120.41 9.60705 119.655 8.87621C118.901 8.14538 117.766 7.92675 116.781 8.32228ZM119.994 14.4874H115.596L115.59 28.684H119.994V14.4874Z" fill="#19191B"/>
<path fill-rule="evenodd" clip-rule="evenodd" d="M137.084 26.7437C138.398 25.3371 139.08 23.4807 138.977 21.5857C139.081 19.6904 138.399 17.8334 137.085 16.4263C135.77 15.0193 133.93 14.1784 131.973 14.0902C130.323 14.003 128.72 14.6385 127.607 15.821V14.4874H123.211V34.3611H127.607V27.3475C128.72 28.5309 130.323 29.1669 131.973 29.0797C133.929 28.9911 135.769 28.1504 137.084 26.7437ZM131.036 18.2922C132.951 18.2612 134.533 19.7313 134.581 21.5856C134.647 22.5071 134.304 23.4123 133.639 24.0737C132.973 24.7351 132.047 25.0898 131.095 25.0487C129.18 25.0489 127.623 23.5535 127.607 21.6987C127.591 19.8438 129.122 18.3232 131.036 18.2922Z" fill="#19191B"/>
<path d="M152.544 24.4236C152.544 27.6888 149.614 29.0798 146.45 29.0798C143.833 29.3094 141.337 27.9709 140.148 25.7013L143.957 23.6005C144.274 24.6571 145.311 25.3551 146.444 25.2754C147.498 25.2754 148.026 24.9628 148.026 24.3964C148.026 22.8333 140.816 23.6579 140.816 18.7465C140.816 15.6505 143.513 14.0903 146.561 14.0903C148.894 14.0187 151.083 15.1823 152.275 17.1275L148.524 19.0863C148.187 18.3261 147.414 17.8343 146.561 17.8373C145.798 17.8373 145.329 18.1241 145.329 18.6317C145.335 20.2507 152.544 19.1709 152.544 24.4236Z" fill="#19191B"/>
<path d="M168.603 14.4874V28.684H164.207V27.3489C163.178 28.5439 161.62 29.1882 160.018 29.0812C157.057 29.0812 154.541 27.0377 154.541 23.2018V14.4874H158.937V22.578C158.863 23.2624 159.103 23.9438 159.594 24.441C160.085 24.9383 160.777 25.2009 161.486 25.1592C163.098 25.1592 164.211 24.2515 164.211 22.2353V14.4917L168.603 14.4874Z" fill="#19191B"/>
<path d="M193.812 19.9667V28.6825H189.416V20.3352C189.416 18.9156 188.713 18.0078 187.307 18.0078C185.841 18.0078 185.02 19.0016 185.02 20.6765V28.6825H180.625V20.3352C180.625 18.9156 179.922 18.0078 178.514 18.0078C177.048 18.0078 176.228 19.0016 176.228 20.6765V28.6825H171.832V14.4859H176.228V15.7909C177.154 14.6146 178.633 13.9736 180.155 14.0887C181.686 14.0162 183.143 14.7272 183.994 15.9615C184.984 14.6712 186.589 13.9639 188.244 14.0887C191.608 14.0902 193.812 16.4175 193.812 19.9667Z" fill="#19191B"/>
<path d="M197.531 14.4C199.333 14.4 200.793 12.985 200.793 11.2395C200.793 9.49399 199.333 8.07898 197.531 8.07898C195.729 8.07898 194.268 9.49399 194.268 11.2395C194.268 12.985 195.729 14.4 197.531 14.4Z" fill="#19191B"/>
</svg>
